# xmcd CD database file
#
# Track frame offsets:
#	150
#	78592
#	123760
#
# Disc length: 2141 seconds
#
# Revision: 0
# Processed by: cddbd v1.4PL0 Copyright (c) Steve Scherf et al.
# Submitted via: CDex 1.50beta10
#
DISCID=1a085b03
DTITLE=Grover Washington Jr - Soul box vol. 2
DYEAR=1973
DGENRE=Jazz
TTITLE0=You are the sunshine of my life
TTITLE1=Don't explain
TTITLE2=Medley (Easy living - 'Tain't nobody's bizness if I do - Taurian matador)
EXTD=YEAR: 1973
EXTT0=
EXTT1=
EXTT2=
PLAYORDER=
